<svg id="Layer_1" data-name="Layer 1" xmlns="http://www.w3.org/2000/svg" viewBox="0 0 759.58 768.42"><defs><style>.cls-1{fill:#343434;}.cls-2{fill:#fff;}</style></defs><title>plastic</title><path class="cls-1" d="M749.08,705.84c-1.32-3.23-2.68-6.44-4.18-9.59-1.43-3-3-5.9-4.63-8.82q-4.34-8-8.43-16.18c-1.4-2.77-2.83-5.53-4.26-8.29s-2.72-5.46-4-8.23c-2.58-5.62-4.87-11.36-7.06-17.14s-4.27-11.37-6.39-17.06c-2.2-5.9-4.47-11.76-6.92-17.56-1.22-2.89-2.43-5.79-3.67-8.67-1.16-2.72-2.39-5.4-3.6-8.1q-1.93-4.31-4-8.52c-1.39-2.78-2.75-5.58-4.16-8.35s-2.84-5.64-4.28-8.45-2.58-5.44-3.87-8.15-2.72-5.59-4.07-8.39-2.67-5.85-4-8.78-2.44-5.62-3.53-8.49-2.15-5.89-3.17-8.85c-.94-2.72-1.83-5.45-2.76-8.17s-1.89-5.33-2.85-8-2-5.37-2.94-8.06c-.89-2.44-1.77-4.9-2.47-7.4a52.41,52.41,0,0,1-.87-9.17,1.36,1.36,0,0,0-.24-.72c.26-.13.52-.26.77-.41a3,3,0,0,0,.75-.67,3.12,3.12,0,0,0,.55-1.22,5,5,0,0,0,.09-1.42,9.28,9.28,0,0,0-.18-1.37,33.46,33.46,0,0,0-1.08-4.22,14.37,14.37,0,0,0-.88-2.13A11.45,11.45,0,0,0,652,464a8.1,8.1,0,0,0-1.11-1.24,13,13,0,0,0-1.4-1.13,24.9,24.9,0,0,0-2.32-1.52,1.55,1.55,0,0,0-1.46-1.66l-.07-.18c-.57-1.59-1.13-3.19-1.72-4.78-1.31-3.55-2.66-7.1-4-10.64q-4.08-10.89-8.13-21.79c-2.76-7.43-5.54-14.86-8.28-22.3s-5.56-15-8.41-22.52c-11.41-30-22.64-60-34.19-89.89q-4.25-11-8.58-22l-7.57-20.08q-2.48-6.49-4.89-13l-2.44-6.58c-.36-1-.7-1.92-1-2.88s-.66-1.76-1-2.66a2.89,2.89,0,0,0-.21-.69,1.32,1.32,0,0,0-.65-.69,1.23,1.23,0,0,0-1.55.48c-.4-.31-.79-.62-1.2-.91a12.83,12.83,0,0,0-2.28-1.36,6.31,6.31,0,0,0-2.55-.52,7.72,7.72,0,0,0-2.09.35l-.35.12c-.32.12-.63.27-.93.41s-.75.37-1.1.58a16.4,16.4,0,0,0-1.79,1.2,15.3,15.3,0,0,0-1.66,1.56,20.79,20.79,0,0,0-1.39,1.56,33.68,33.68,0,0,0-4.67,7.41,38.35,38.35,0,0,0-2.68,8.28c-.27,1.5-.45,3-.62,4.51s-.29,2.89-.34,4.34a71.24,71.24,0,0,0,.24,8.72q.37,4.28.94,8.53c.39,2.89.82,5.77,1.15,8.67a126.56,126.56,0,0,0,1.76,13.38c.53,2.38,1.19,4.7,1.9,7,.33,1.1.67,2.19,1,3.3s.56,2.07.82,3.11c.61,2.74,1.14,5.5,1.7,8.25s1.17,5.26,1.69,7.91,1,5.58,1.66,8.35c.35,1.54.73,3.07,1.15,4.59.37,1.36.81,2.71,1.22,4.07,1.65,5.47,3.2,11,4.82,16.44.76,2.57,1.49,5.14,2.23,7.71s1.6,5.4,2.35,8.11c1.54,5.6,3,11.23,4.58,16.81,1.57,5.4,3.62,10.66,5.62,15.91s4.21,10.68,6.36,16c1.07,2.65,2.21,5.28,3.32,7.92s2.11,5.15,3.12,7.75,2,5.23,3,7.83,2.2,5,3.35,7.43c2.32,5,4.9,9.76,7.53,14.54.63,1.15,1.25,2.32,1.92,3.45a8.07,8.07,0,0,0,1.84,2.16,19.28,19.28,0,0,0,1.69,1.17,28.74,28.74,0,0,0,3.93,2.1,34.06,34.06,0,0,1,3.21,1.54,32.42,32.42,0,0,1,3.53,3c1.1,1,2.17,2.1,3.23,3.18.64.68,1.25,1.38,1.85,2.1.37.46.72.94,1.08,1.41a24.32,24.32,0,0,0,0,3.91c.27,2.54,2.25,4.36,4.26,5.7a8,8,0,0,0,2.62,1.27,5.17,5.17,0,0,0,.64.09l.11.27c.24.62.47,1.25.69,1.87.46,1.31.9,2.62,1.47,3.88,1.18,2.63,2.49,5.19,3.65,7.82s2.09,5.32,3.06,8,2,5.51,2.94,8.28q1.52,4.45,3.09,8.87c1.06,3,2.14,5.91,3.16,8.88s2.08,6,3.09,9.07c.47,1.42.92,2.85,1.41,4.27q.84,2.43,1.74,4.83c1.11,3,2.34,6,3.6,8.89.58,1.37,1.18,2.73,1.73,4.11.65,1.62,1.27,3.26,1.9,4.89,2.27,5.89,4.41,11.83,6.53,17.78q1.61,4.5,3,9c.93,3,1.89,5.9,2.77,8.87q.73,2.46,1.39,4.93c.36,1.37.69,2.74,1,4.11.83,3.19,1.7,6.36,2.49,9.56.38,1.53.73,3.07,1.11,4.6s.74,2.83,1.12,4.25c.82,3,1.61,6.12,2.51,9.15s1.91,6.24,2.74,9.4c.77,3,1.51,5.93,2.26,8.89,1.52,5.94,3.28,11.81,5.07,17.68,1,3.11,1.88,6.23,2.85,9.33s1.92,6.16,2.82,9.26,1.8,6,2.66,9.07,1.76,6.32,2.63,9.48c.39,1.4.8,2.79,1.16,4.2q.63,2.41,1.21,4.85c.39,1.62.79,3,1.27,4.44s1,3,1.62,4.43,1.2,2.9,1.83,4.33,1.44,3,2.27,4.5a57.11,57.11,0,0,0,5.3,7.44,37.88,37.88,0,0,0,3.82,3.79,46.91,46.91,0,0,0,3.85,2.92,34,34,0,0,0,4.27,2.59,23.44,23.44,0,0,0,2.25,1c.76.28,1.45.55,2.19.8a25.91,25.91,0,0,0,2.63.73c.53.12,1,.24,1.58.34a19.17,19.17,0,0,0,3.53.29,16.26,16.26,0,0,0,3.39-.46,22.66,22.66,0,0,0,4.49-1.5,58.17,58.17,0,0,0,8.23-4.45,15.45,15.45,0,0,0,2.84-2.38,19.12,19.12,0,0,0,3.9-5.85c.29-.67.56-1.34.82-2,.32-.84.57-1.71.82-2.57a18.77,18.77,0,0,0,.45-2c.13-.79.26-1.59.34-2.39a27.55,27.55,0,0,0-.86-9.68,91.39,91.39,0,0,0-2.85-8.71Q752.63,714.4,749.08,705.84Zm-97.59-234.6a12.46,12.46,0,0,1,.33,2.31v.22h-.06l-1.1.51q-.81.4-1.6.84c-.78.43-1.54.9-2.32,1.34-.53.26-1.07.49-1.62.71a2.08,2.08,0,0,0,1-2.57,20.72,20.72,0,0,0-1-2v-.14a6,6,0,0,0-.27-1c-.08-.22-.15-.45-.22-.67s-.26-.74-.39-1.11l-.13-.35a2.42,2.42,0,0,0-.12-.92,4.1,4.1,0,0,0-.24-.54,5.88,5.88,0,0,0-.45-.76l-.24-.39-.06-.1h0a2,2,0,0,0-1.24-.79l2-1.55c.33-.26.66-.53,1-.82a1.44,1.44,0,0,0,1.55.39,1.39,1.39,0,0,0,.47-.31,15.17,15.17,0,0,1,2.42,1.79,7.4,7.4,0,0,1,.76,1.09,25,25,0,0,1,1.53,4.83ZM642.85,478a2.17,2.17,0,0,0,.19-.36,1.88,1.88,0,0,0,.44,0,1.85,1.85,0,0,0,.74-.23,2,2,0,0,0,.45-.07c-.6.24-1.21.46-1.82.67Zm95.64,242-.21-.12-.32-.84h.17Zm-99.2-240.79a2.33,2.33,0,0,0,.25-.48,2.42,2.42,0,0,0,.47.23Zm5,2.18a1.85,1.85,0,0,0,0,.39h-.06l-.1-.17h0a1.34,1.34,0,0,0-.4-.37l.69-.24A2.63,2.63,0,0,0,644.29,481.42Zm-36.13-13.11c-.72-.65-1.46-1.28-2.24-1.86a13.78,13.78,0,0,0-2.84-1.57c-.93-.4-1.89-.74-2.81-1.16a27.45,27.45,0,0,1-2.75-1.43,11.66,11.66,0,0,1-1.7-1.24,15.12,15.12,0,0,1-1.68-2.61c-2.5-4.63-4.85-9.33-7-14.13q-1.73-3.83-3.34-7.71c-1.06-2.56-2-5.17-3-7.76s-2-5.08-3-7.61c-1.1-2.73-2.24-5.44-3.34-8.17s-2-5.24-3.07-7.86-2.12-5.37-3.12-8.08-2-5.3-2.9-8-1.82-5.18-2.6-7.81c-1.64-5.55-3.08-11.16-4.59-16.74-.73-2.69-1.55-5.36-2.32-8s-1.5-5.3-2.26-7.94q-2.37-8.21-4.77-16.41c-.45-1.54-.92-3.09-1.39-4.63-.41-1.34-.76-2.7-1.1-4.06-.6-2.67-1.11-5.35-1.6-8s-1.11-5.47-1.66-8.2-1-5.49-1.58-8.22c-.32-1.5-.67-3-1-4.49s-.78-2.7-1.18-4c-.51-1.69-1-3.39-1.42-5.11-.26-1.26-.51-2.53-.69-3.8-.21-1.52-.39-3-.55-4.56-.29-2.82-.54-5.63-.88-8.44-.69-5.63-1.56-11.24-1.82-16.9-.08-1.65-.1-3.28-.1-4.93v-1.15c0-.52.09-1,.13-1.55.1-1.17.24-2.34.37-3.51s.32-2.19.51-3.27a28.16,28.16,0,0,1,.69-2.84c.46-1.34.94-2.66,1.48-4a27.88,27.88,0,0,1,1.9-3.71c.63-1,1.29-1.95,2-2.89a21.6,21.6,0,0,1,2.2-2.5,14.66,14.66,0,0,1,1.22-1c.5-.35,1-.69,1.55-1a6.83,6.83,0,0,1,1.06-.42,5.56,5.56,0,0,1,.8-.06,4.32,4.32,0,0,1,.54.1,7.86,7.86,0,0,1,1.21.59c1.25.86,2.43,1.81,3.61,2.76a1.58,1.58,0,0,0,1.15.33l.52,1.35c.66,1.68,1.29,3.38,1.93,5.07l4,10.66,8.38,22.34.89,2.35q1.26,3.52,2.53,7,4,11.21,8.15,22.4T589,316.46c2.76,7.45,5.56,14.89,8.34,22.34l8.62,23.1c2.78,7.45,5.53,14.9,8.33,22.34s5.71,15,8.57,22.52L634,436.23l5.59,14.55c.83,2.2,1.64,4.4,2.52,6.58.38.94.75,1.89,1.13,2.83a1.59,1.59,0,0,0-.07.34l-.5.52c-.64.56-1.33,1-2,1.57s-1.52,1.16-2.3,1.72a45.3,45.3,0,0,1-4.6,3c-.51.27-1,.52-1.56.76a20.29,20.29,0,0,1-1.94.72c-1.29.43-2.6.82-3.9,1.24s-2.58.93-3.89,1.35-2.55.72-3.84,1q-2.62.59-5.26,1.09c-.27-.31-.55-.62-.83-.92-.73-.78-1.5-1.53-2.26-2.29s-1.43-1.32-2.17-2Zm8.8,15.42a7.08,7.08,0,0,1-.75-1,4.67,4.67,0,0,1-.26-.67,14.88,14.88,0,0,1-.16-2.54l.2-.12a1.52,1.52,0,0,0,.33-2.11l-.4-.55a1.26,1.26,0,0,0-.24-.69l-.1-.11c2.73-.54,5.45-1.15,8.13-1.92,1.45-.42,2.87-.9,4.32-1.29s3-.8,4.53-1.3l.21-.08c.39,1.14.79,2.28,1.17,3.42l.68,2c.1.3.22.61.32.91s.12.31.18.47a3.48,3.48,0,0,0,.21.43l.28.51a4.76,4.76,0,0,0,.61.6,1.86,1.86,0,0,0,.75.39,73.89,73.89,0,0,0-7.36,3.17c-1.09.56-2.17,1.13-3.27,1.64a18.12,18.12,0,0,1-2.4.9,2.05,2.05,0,0,0-2-1.19,2,2,0,0,0-.51.12A2.11,2.11,0,0,0,620.2,486c-.22-.1-.44-.21-.65-.33a15.54,15.54,0,0,1-2.59-1.93ZM709.2,744.19c-.49-.77-1-1.54-1.42-2.33a73.12,73.12,0,0,1-3.33-7.35c-.53-1.34-1-2.71-1.45-4.09s-.77-2.69-1.09-4q-1-4.71-2.23-9.37c-.78-3.07-1.52-6.14-2.33-9.2s-1.75-6.37-2.63-9.56-1.75-6.17-2.67-9.23-1.78-6-2.68-9-1.86-6.1-2.75-9.16S685,665,684.2,662s-1.4-5.69-2.14-8.52c-1.1-4.26-2.45-8.45-3.61-12.7s-2.24-8.33-3.24-12.52l.16.69q-1.14-4.87-2.43-9.7c-.8-3-1.52-6-2.37-9-1.76-6.15-3.75-12.24-5.87-18.27s-4.32-12.07-6.58-18.07c-1.13-3-2.27-6-3.51-9s-2.52-5.84-3.71-8.79-2.29-5.87-3.34-8.84c-.52-1.46-1-2.94-1.51-4.4s-1-3-1.56-4.43c-2.08-6-4.3-12-6.38-18q-1.48-4.27-3-8.51c-1-2.67-2-5.34-3.1-8s-2.4-5.31-3.69-7.92c-.61-1.23-1.3-2.43-1.85-3.68s-1-2.52-1.46-3.79a24,24,0,0,0,2.91-1c1.43-.61,2.8-1.35,4.22-2s2.89-1.15,4.35-1.69l3-1.1a1.85,1.85,0,0,0,.07,1.07,1.68,1.68,0,0,0,.13.27,1.43,1.43,0,0,1-.06.5,3.11,3.11,0,0,0,.32,2.37l.56,1.34,1.31,3.12,1.16,2.8c.25.6.49,1.22.76,1.81l2.92,7.42q1.09,2.78,2.16,5.55l1.26,3.22c.36.92.71,1.85,1.13,2.75q1.39,3.44,2.83,6.85.9,2.14,1.83,4.27,1.89,4.9,3.76,9.81l.5,1.3a1.47,1.47,0,0,0-.48,1.67c.86,2.35,1.76,4.7,2.64,7,.94,2.5,1.9,5,2.86,7.48.86,2.22,1.76,4.41,2.66,6.61q1.18,2.91,2.42,5.79l2,4.72c.26.61.52,1.23.8,1.84l3.69,8.08c.44,1,.89,1.9,1.35,2.85l.69,2.11c.79,2.43,1.62,4.85,2.45,7.26.31.91.61,1.83,1,2.73l1.37,3.67c.76,2,1.5,4.08,2.3,6.1l3.3,8.31c.25.63.53,1.25.8,1.88l2,4.72,1.24,2.89c.36.84.77,1.66,1.16,2.48l2.28,4.89c.33.71.65,1.44,1,2.15l.42.82,1.12,3,.38,1.27c.67,2.28,1.37,4.55,2.07,6.82.33,1.08.71,2.15,1.07,3.22l1.44,4.34c.21.64.46,1.26.7,1.89l1.82,4.82,1.26,3.34c.11.28.23.55.35.82l1,2.34,1.94,4.55c.33.79.69,1.57,1,2.35s.84,1.82,1.3,2.72c.27.53.56,1,.86,1.54a1.89,1.89,0,0,0,.09.6c.72,2.22,1.56,4.4,2.36,6.59s1.56,4.24,2.35,6.35c1.76,4.68,3.53,9.37,5.34,14l.72,1.85c.35.89.69,1.77,1.06,2.65a21.64,21.64,0,0,0,1.37,2.77,1.55,1.55,0,0,0,.71.61c.92,2.25,1.82,4.52,2.85,6.72v0c.77,2.36,1.69,4.67,2.56,7,.81,2.17,1.67,4.33,2.5,6.5l0,.14q.63,2.22,1.25,4.44c.52,2.08,1,4.17,1.53,6.26l.17.76c-.17,1.77-.47,3.53-.76,5.28-.16,1-.28,2-.47,3a15.28,15.28,0,0,0-.25,2.1,30.8,30.8,0,0,1-3.48,1.38h-1.16a48.94,48.94,0,0,1-9.5-1.5,21.59,21.59,0,0,1-2.59-1,26.47,26.47,0,0,1-2.58-1.3c-.4-.26-.78-.52-1.15-.8l-.06-.06a14,14,0,0,0-1.3-1.27,2.07,2.07,0,0,0-2-.31,1.74,1.74,0,0,0-.67.44c-.3-.33-.57-.69-.86-1-.54-.65-1-1.32-1.56-2S709.71,745,709.2,744.19Zm43.54-20.25c.42,1.23.85,2.45,1.24,3.69s.66,2.26.94,3.4a36.29,36.29,0,0,1,.69,3.69,28.47,28.47,0,0,1,.19,4v.22a2.79,2.79,0,0,0-1.86-1.24,2.69,2.69,0,0,0-1.55.12,8.84,8.84,0,0,0-1.31.78l-.41.3c-.1-.34-.21-.68-.32-1-.2-.61-.39-1.23-.6-1.83L749,734q-.12-.44-.26-.87a3.42,3.42,0,0,0-.32-.71q-1.27-3.39-2.58-6.76l-2.56-6.51c-.44-1.12-.89-2.23-1.34-3.34a58.81,58.81,0,0,0-2.32-5.48l-.18-.34a1.6,1.6,0,0,0-.48-.67q-1.61-4-3.3-8c-1-2.44-2.07-4.88-3.17-7.29a84.12,84.12,0,0,0-3.89-7.94l-.3-.83-.36-1-.2-.53-.19-.51a1.39,1.39,0,0,0-.11-.43c-1-2.28-1.94-4.59-2.92-6.87l-2.57-6q-2.31-5.76-4.76-11.46c-1.5-3.46-3-6.93-4.5-10.37-1.66-3.78-3.31-7.57-4.9-11.38a2,2,0,0,0-1.31-1.17l-.31-.68v-.11h0a12,12,0,0,0-.27-1.19c-.16-.62-.43-1.23-.64-1.84l-.64-1.85c-.34-1-.67-1.94-1-2.91L702,622.64c-.33-.88-.69-1.75-1-2.62-.85-2.15-1.71-4.29-2.6-6.42s-1.82-4.4-2.78-6.58l-3.57-8.15-2.75-6.11q-3.2-7.08-6.42-14.15l-5.85-12.85-.6-1.31c-1.28-3.72-2.52-7.45-3.82-11.16-.74-2.12-1.46-4.24-2.21-6.36L667,536.62c-.36-1.07-.69-2.15-1.13-3.2a1.49,1.49,0,0,0-1.51-.94h-.13q-3.62-10-7.2-20l-.46-1.45c-.2-.67-.41-1.35-.64-2-.5-1.58-1-3.16-1.52-4.73a1.57,1.57,0,0,0,.21-1.48c-.45-1.19-.9-2.38-1.37-3.56a1.54,1.54,0,0,0,.42-1.65q-1.42-4.52-3-9c-.51-1.41-1-2.82-1.59-4.2a9.55,9.55,0,0,0-1-1.76,2.48,2.48,0,0,0-.2-.26v-.14a2,2,0,0,0-.61-2,2.47,2.47,0,0,0-.41-.27h0a16.35,16.35,0,0,0,1.86-1l1-.65c0,1.5.12,3,.26,4.5a30.54,30.54,0,0,0,.72,4.79c.77,3,1.83,5.88,2.87,8.78,2.1,5.87,4.23,11.74,6.18,17.66s4.16,12,6.61,17.82c1.21,2.9,2.55,5.74,3.86,8.59.64,1.39,1.3,2.78,2,4.15s1.45,2.84,2.16,4.26c1.39,2.79,2.78,5.58,4.1,8.4.64,1.36,1.27,2.72,1.94,4s1.36,2.62,2,4c2.76,5.6,5.61,11.15,8.21,16.83,1.28,2.81,2.47,5.65,3.68,8.48s2.37,5.59,3.54,8.4c2.44,5.87,4.87,11.75,7.18,17.67,2.21,5.67,4.44,11.33,6.6,17,1.11,2.91,2.21,5.83,3.34,8.74s2.37,5.76,3.6,8.61c2.41,5.6,5.12,11.06,7.92,16.47,1.45,2.79,2.86,5.6,4.32,8.38l4.24,8q2.1,4,4.22,7.91c1.44,2.67,2.83,5.37,4.07,8.14s2.53,5.79,3.73,8.71,2.26,5.76,3.35,8.65C751.22,719.6,752,721.76,752.74,723.94Z"/><path class="cls-1" d="M243.45,405.32l1-1.9c.87-1.74,1.75-3.47,2.61-5.21,1-2,2.19-4.44,3.31-6.84,1-2.16,2-4.51,3-7.2l.44-1.15c.3-.77.59-1.55.91-2.31.55-1.32,1.13-2.65,1.73-3.94l1.31-2.8q.95-2,1.89-4l2.49-5.4.83-1.78q.78-1.69,1.58-3.38c.72-1.54,1.45-3.07,2.16-4.62.85-1.86,1.68-3.76,2.49-5.61l1-2.28.78-1.78c.81-1.85,1.64-3.77,2.53-5.63,1.06-2.22,2.21-4.44,3.33-6.58l.32-.62c1.36-2.63,2.61-5,3.81-7.13.77-1.4,1.57-2.79,2.37-4.18l1.56-2.73c1.42-2.52,2.7-4.85,3.89-7.12l1.59-3c1.86-3.5,3.77-7.13,5.47-10.79,1.19-2.57,2.22-4.92,3.16-7.2.44-1.08.86-2.19,1.26-3.26.5-1.33,1-2.71,1.59-4,1.09-2.55,2.4-5,3.67-7.47l1-1.81a1.17,1.17,0,0,0,.07-.91v-.09a22.14,22.14,0,0,0,.86-2.34,3.53,3.53,0,0,0-1-3.72,2.82,2.82,0,0,0-.54-.36,4,4,0,0,0-3.23,0,12.14,12.14,0,0,0-2.59,1.41,45.24,45.24,0,0,0-4.43,3.74,34,34,0,0,0-3.74,4.09,49.7,49.7,0,0,0-3.38,5c-1.91,3.22-3.56,6.59-5.2,10s-3.3,6.74-4.84,10.17-3.08,7.12-4.65,10.67-3,6.86-4.52,10.3c-.77,1.78-1.55,3.55-2.27,5.36s-1.45,3.63-2.19,5.44c-1.45,3.58-3,7.1-4.7,10.59s-3.47,6.86-5.34,10.21l-2.68,4.76c-.89,1.59-1.77,3.27-2.61,4.92-1.77,3.45-3.5,6.92-5.41,10.29-.71,1.25-1.43,2.49-2.18,3.72-.63,1-1.3,2-2,3a22.12,22.12,0,0,1-3.06,3.69,7.55,7.55,0,0,1-1,.67l-.45.16H235l-.07-.06a6.91,6.91,0,0,1-.64-1,9,9,0,0,1-.39-1.15,9.85,9.85,0,0,1-.12-1.15v-1.28a19.83,19.83,0,0,1,.45-2.79c.23-1,.52-1.94.84-2.89,1.23-3.36,2.69-6.64,4.23-9.86.8-1.66,1.64-3.3,2.44-5s1.64-3.48,2.42-5.23c1.57-3.51,3.15-7,4.79-10.5s3.33-6.67,5.07-10c3.51-6.67,7-13.36,10.57-20,1.82-3.32,3.82-6.54,5.78-9.79s3.79-6.48,5.59-9.77,3.71-6.84,5.5-10.29,3.43-6.92,5-10.46c.78-1.77,1.5-3.59,2.11-5.43a19.61,19.61,0,0,0,.76-2.78,10.82,10.82,0,0,0,.15-1.26,9.36,9.36,0,0,0,0-1.62,10.86,10.86,0,0,0-.62-2.87,9.76,9.76,0,0,0-.44-.94,3.31,3.31,0,0,0-1.54-1.43,3.5,3.5,0,0,0-2.31-.1,6.19,6.19,0,0,0-1.55.66,8.29,8.29,0,0,0-1.64,1.3,9.91,9.91,0,0,0-.91,1,20,20,0,0,0-1.76,2.75c-.89,1.59-1.67,3.24-2.49,4.87s-1.67,3.33-2.5,5c-1.66,3.36-3.27,6.74-4.86,10.14s-3.31,7-5.07,10.48-3.53,6.86-5.33,10.27-3.59,6.8-5.34,10.23-3.44,6.72-5.12,10.16c-3.43,6.84-6.81,13.69-10.25,20.52-1.72,3.42-3.48,6.81-5.23,10.22s-3.46,6.85-5.31,10.21c-1.36,2.47-2.75,4.9-4.28,7.27a19.73,19.73,0,0,1-2.59,3.18,10.14,10.14,0,0,1-1.5,1h-.57a5.68,5.68,0,0,1-.79-.17,6.27,6.27,0,0,1-.84-.41,5.94,5.94,0,0,1-.66-.61,5.18,5.18,0,0,1-.37-.58,7.06,7.06,0,0,1-.3-1,9.94,9.94,0,0,1-.07-1.48,25.06,25.06,0,0,1,1.27-5.72,40.8,40.8,0,0,1,2.11-4.74q1.3-2.52,2.63-5,2.61-4.89,5.34-9.7c1.8-3.19,3.53-6.43,5.26-9.66q2.78-5.21,5.5-10.45c1.75-3.39,3.52-6.78,5.35-10.14s3.89-6.69,5.85-10,3.87-6.68,5.79-10c1-1.67,1.9-3.34,2.85-5s1.86-3.22,2.74-4.86c1.86-3.45,3.58-7,5.31-10.5s3.44-7,4.93-10.59a53.41,53.41,0,0,0,1.92-5.53,45.18,45.18,0,0,0,1.29-5.58q.09-.59.15-1.17c0-.39,0-.61,0-.91a4.16,4.16,0,0,0-.12-.9,3.92,3.92,0,0,0-.55-1.35,3,3,0,0,0-.76-.77,3.26,3.26,0,0,0-1.43-.59,6.23,6.23,0,0,0-2.35.21,6.68,6.68,0,0,0-1.34.48,11.82,11.82,0,0,0-2.57,1.54,20.32,20.32,0,0,0-2.25,2.11,48.39,48.39,0,0,0-3.34,4.35q-1.81,2.51-3.55,5.07c-1.06,1.57-2.07,3.17-3,4.82s-1.67,3.2-2.48,4.81c-3.44,6.84-6.84,13.71-10,20.69l-4.72,10.49c-1.58,3.51-3.12,7-4.68,10.55s-3.26,7.21-5,10.77-3.45,6.89-5.18,10.33c-3.41,6.78-6.81,13.58-10.71,20.09-.61,1-1.21,2.06-1.87,3l-1.79,2.68c-.74,1-1.49,2.07-2.3,3.07a28.51,28.51,0,0,1-3.06,3.37,6.89,6.89,0,0,1-.84.56l-.3.11h-.26l-.12-.11a5.39,5.39,0,0,1-.36-.58,6.49,6.49,0,0,1-.29-.88,14.59,14.59,0,0,1-.09-3.14,31,31,0,0,1,.55-3.48,33.73,33.73,0,0,1,1-3.53c1.23-3.42,2.66-6.76,4-10.15.7-1.79,1.35-3.59,2-5.39s1.37-3.48,2.09-5.2,1.46-3.41,2.21-5.1,1.59-3.54,2.45-5.28q2.49-5,5.22-10c.88-1.59,1.8-3.16,2.71-4.72s1.92-3.34,2.85-5c1.86-3.33,3.62-6.72,5.47-10.07s3.68-6.48,5.53-9.71c1-1.7,1.94-3.39,2.89-5.1s1.73-3.25,2.58-4.89,1.79-3.41,2.73-5.08,1.9-3.25,2.88-4.86,1.92-3,2.83-4.58c.48-.81.94-1.63,1.41-2.45h.12a1.64,1.64,0,0,0,1.91-1.27c.29-1.22.51-2.45.71-3.68,1-1.83,2-3.68,3-5.52a1.76,1.76,0,0,0,1.31-.37,1.54,1.54,0,0,0-.16-2.69l-.19-.08-.39-.2a1.33,1.33,0,0,0-.28-.2,1.35,1.35,0,0,0-.34-.11l-2.25-1.09-.65-.31.18-.26a3.29,3.29,0,0,0,.37-1,1.33,1.33,0,0,0-.41-1.25,1.3,1.3,0,0,0-.29-.2,1.37,1.37,0,0,0-1.33.07,3.2,3.2,0,0,0-.9.79,6.33,6.33,0,0,0-.36.54l-.6-.28a1.81,1.81,0,0,0-2,.27,1.76,1.76,0,0,0-1.09.87,1.74,1.74,0,0,0,.75,2.31l.76.43c-.64,1.06-1.29,2.1-1.94,3.12l-1.18,1.86c-1.13,1.8-2.3,3.62-3.43,5.37l-.44.69c-1.26,2-2.5,4-3.71,5.89l-.7,1.11c-1.6,2.56-2.92,4.71-4.19,6.92s-2.51,4.8-3.68,7.3-2.37,5.29-3.39,7.67c-.47,1.1-1,2.38-1.64,3.62-.37.75-.75,1.49-1.13,2.24l-.76,1.49q-3,5.92-5.93,11.85c-2.42,4.86-4.93,9.89-7.43,14.81-2,4-4.23,8.23-6.9,13.29-1.3,2.47-2.39,4.53-3.57,6.64s-2.45,4.19-3.76,6.14l-1.3,1.86c-1.09,1.56-2.22,3.18-3.3,4.79-.49.74-1,1.49-1.44,2.23l-.79,1.24-.78,1.21c-.58.89-1.15,1.79-1.72,2.69a161.41,161.41,0,0,0-8.11,15c-1.3,2.67-2.38,4.9-3.35,7.27-.49,1.2-.93,2.44-1.38,3.71a31.87,31.87,0,0,0-1.11,4.2c-.27,1.3-.47,2.59-.61,3.84-.16,1.42-.27,2.82-.39,4.5a31.88,31.88,0,0,0,0,3.87c.07,1.29.2,2.67.45,4.45.21,1.5.49,3.1.88,5,.21,1,.47,2,.72,3,.13.5.25,1,.37,1.49.31,1.27.67,2.77,1,4.28.25,1.11.46,2.24.67,3.34l.11.58c.29,1.57.49,3,.63,4.3.07.65.15,1.39.17,2.13s0,1.23,0,2a35,35,0,0,1-.83,5.07c-.44,1.77-.91,3.42-1.46,5-.84,2.2-1.79,4.26-2.94,6.72L168,451.54c-.74,1.61-1.51,3.28-2.3,4.9-1.13,2.34-2.4,4.79-3.9,7.48-.7,1.27-1.36,2.41-2,3.5-.36.62-.74,1.23-1.11,1.84s-.75,1.22-1.11,1.83c-1.25,2.12-2.51,4.42-4,7.25q-1.62,3.15-3.27,6.27l-.37.71-2.33,4.48c-1.8,3.48-3.67,7.08-5.6,10.56-1.34,2.42-2.83,5-4.71,8.17-1.06,1.79-2.25,3.55-3.4,5.25-.5.74-1,1.48-1.49,2.23-1.6,2.44-3.1,5-4.56,7.47-1.63,2.78-3.32,5.65-5.16,8.37L121.17,534,118,538.48c-1.22,1.72-2.42,3.49-3.58,5.21l-1.15,1.69c-2.06,3-3.62,5.38-5.05,7.58l-1.77,2.72-.39.6c-.91,1.4-1.75,2.88-2.47,4.16l-.86,1.55c-1,1.85-2.09,3.76-3.21,5.6-1.56,2.58-3.15,5.15-4.77,7.77l-.34.56c-1.41,2.28-2.87,4.64-4.22,7-.55,1-1.1,2-1.64,2.93-.76,1.36-1.54,2.77-2.34,4.14-.64,1.11-1.27,2.22-1.9,3.33-1.29,2.28-2.62,4.63-4,6.89-1.79,2.89-3.68,5.78-5.51,8.57l-1,1.56-1.51,2.13L71,614.25A54.35,54.35,0,0,0,68.15,619c-1.12,2-2,3.66-2.88,5.24l-1.06,2c-.55,1-1.1,2.1-1.67,3.14-2.23,4.09-4,7.18-5.81,10-.6,1-1.21,1.9-1.83,2.85l-1,1.59L53,645.13c-.74,1.16-1.49,2.32-2.25,3.47l-1.18,1.69Q48.31,652.15,47,654c-1,1.53-2.05,3.13-3,4.67l-1.09,1.72c-1.15,1.8-2.44,3.74-4.05,6.1-.88,1.28-1.74,2.57-2.6,3.86l-1.42,2.12c-.78,1.11-1.58,2.21-2.36,3.26s-1.5,2-2.25,2.9l-.53.67-.4.51-2.19,2.76c-.87,1.09-1.84,2.13-2.77,3.13l-.12.13-.57.62c-.62.67-1.24,1.34-1.88,2-1,1.06-2.11,2.08-3.27,3.12s-2.17,2-3.2,3c-.38.38-.75.77-1.12,1.16l-.38.4-.31.33c-.41.44-.83.87-1.22,1.32s-1,1.14-1.42,1.74c-.33.43-.63.89-.92,1.33l-.33.5a37.28,37.28,0,0,0-2.22,4c-.57,1.12-1.11,2.29-1.67,3.59s-1,2.53-1.41,3.78l-.2.59c-.79,2.27-1.45,4.62-2.09,6.9l-.24.86A33.46,33.46,0,0,0,1,724.93c-.24,1.46-.44,3-.6,4.53v.11a34.29,34.29,0,0,0-.26,4.08c0,1.58.12,3.16.23,4.65a38.49,38.49,0,0,0,.56,4.27v.1c.13.72.27,1.45.44,2.18s.34,1.3.53,2l0,.19a16.85,16.85,0,0,0,.71,1.93c.35.84.73,1.67,1.09,2.43.22.47.45.94.68,1.41l.11.23a23.42,23.42,0,0,0,1.58,2.63,11.88,11.88,0,0,0,1,1.47l.26.29a15.11,15.11,0,0,0,2.2,1.88c.46.34,1,.65,1.54,1l.34.18c.29.15.59.27.89.4l.34.15c.7.3,1.42.56,2.13.81l.15,0c1,.36,2.09.71,3.14,1.06l.73.24,1.59.59a6,6,0,0,0,.67.87,8.81,8.81,0,0,0,1.66,1.28,5.24,5.24,0,0,0,1.41.56,10.43,10.43,0,0,0,1.44.31,15.36,15.36,0,0,0,3.4.07h.13a35.19,35.19,0,0,0,4.52,1,41.28,41.28,0,0,0,4.3.51,15.18,15.18,0,0,0,4.11-.32,17.34,17.34,0,0,0,3.34-1.11c.8-.35,1.59-.76,2.36-1.15l1.34-.67.22-.1c.7-.32,1.4-.65,2.08-1a16.52,16.52,0,0,0,1.55-.9q.46-.36.89-.74c.25-.23.47-.44.68-.67A37.3,37.3,0,0,0,58.11,757c.7-1,1.49-2,2.43-3.24.43-.54.88-1.07,1.31-1.58s1-1.21,1.52-1.85A38.86,38.86,0,0,0,65.63,747c.4-.66.78-1.32,1.16-2l.78-1.35c.89-1.51,1.82-3,2.71-4.5l1.47-2.41a61.49,61.49,0,0,0,3.08-6l.54-1.15c.8-1.71,1.66-3.43,2.49-5.09L79,722.32c.58-1.17,1.14-2.37,1.68-3.56.63-1.39,1.17-2.82,1.71-4.28,1-2.59,1.73-5.23,2.44-7.71.48-1.68.94-3.39,1.38-5,.3-1.12.59-2.23.9-3.35.42-1.53.89-3.08,1.35-4.58.32-1.06.64-2.12,1-3.19.36-1.23.7-2.46,1.05-3.7.4-1.41.79-2.82,1.2-4.22,1.42-4.87,3.13-10.16,5.23-16.19.46-1.3.91-2.61,1.34-3.92s.91-2.92,1.34-4.35l.06-.2c.51-1.72,1-3.44,1.57-5.15l.73-2.35c.47-.86.95-1.71,1.41-2.57l1.6-3a28.85,28.85,0,0,0,1.84-3.66,3.47,3.47,0,0,0-.59-4l.1-.31,1.06-3.26c.31-1,.62-1.94.92-2.9s.66-2.12,1-3.17c.44-1.26.8-2.22,1.16-3.12.49-1.23,1-2.46,1.53-3.65l.09-.2c.64-1.48,1.31-3,2-4.41l1.34-3c.87-2,1.69-4,2.48-6l.84-2.07c1-2.55,2.14-5.28,3.22-8q1-2.45,2-4.87l1.11-2.71q.92-2.27,1.83-4.55l1.3-3.25,1.27-3.2c.56-1.4,1.11-2.81,1.68-4.2.71-1.74,1.45-3.47,2.18-5.21l.95-2.23c1-2.27,1.93-4.54,2.91-6.8,1.22-2.82,2.47-5.73,3.67-8.61q.46-1.12.9-2.25l.45-1.13.94-2.34.76-1.87c1-2.41,2-4.93,3.09-7.47,1-2.28,2-4.58,3-6.81l.5-1.13c1-2.31,2.14-4.75,3.51-7.67,2.31-4.91,4.75-9.83,7.27-14.64,1.65-3.15,3.48-6.52,5.76-10.59,1-1.86,2.15-3.73,3.1-5.34s2-3.43,3-5.19c1.37-2.5,2.8-5,4.19-7.44l1.61-2.83q1.45-2.56,2.93-5.1c1.18-2,2.46-3.94,3.55-5.54,1.24-1.81,2.31-3.41,3.26-4.89l.7-1.1c.7-1.09,1.42-2.22,2.16-3.32l.54-.78a53,53,0,0,1,3.16-4.36c.66-.82,1.37-1.7,2.17-2.55s1.65-1.68,2.59-2.54a25.87,25.87,0,0,1,2.24-1.67,34.73,34.73,0,0,1,3.07-1.76,56.65,56.65,0,0,1,6.44-2.63l1.1-.36c2-.66,4.14-1.35,6.15-2.18.6-.25,1.19-.52,1.78-.79a18.57,18.57,0,0,0,1.73-.86,20.33,20.33,0,0,0,3-2.09c.72-.6,1.67-1.4,2.54-2.27s1.94-2.08,2.9-3.18a39,39,0,0,0,2.46-3.32l.09-.12c.79-1.15,1.57-2.37,2.38-3.74.59-1,1.15-2,1.7-3l.37-.68,1-1.79,1.24-2.25c.82-1.52,1.6-3.09,2.35-4.62A14.79,14.79,0,0,1,243.45,405.32ZM304.07,270Zm-34-18,.1.12ZM31.85,760.44l1-.8a2.77,2.77,0,0,0,0,.59ZM44,763a17.42,17.42,0,0,1-1.69.64,27.82,27.82,0,0,0,3.58-2,2.8,2.8,0,0,0,.27.24l-1.18.58ZM240.63,404.37c-1.42,2.79-2.71,5.3-4.15,7.79L235.42,414c-1.22,2.14-2.48,4.37-3.89,6.45a43.94,43.94,0,0,1-3.22,4.14,39.36,39.36,0,0,1-3.53,3.54,25.5,25.5,0,0,1-2.07,1.56,22.09,22.09,0,0,1-2.36,1.36c-.62.27-1.25.53-1.9.77a3,3,0,0,0,.4-.35,3.28,3.28,0,0,0,.78-1.39,3.76,3.76,0,0,0,.47-1.22,2.62,2.62,0,0,0-.16-1.47,4.2,4.2,0,0,0-.87-1.27l-.29-.22a6.82,6.82,0,0,0-.89-.58l-.11-.06-.31-.15c-.3-.15-.62-.29-.93-.42-2.23-1-4.45-2-6.73-2.87s-4.92-1.67-7.38-2.5c-1.52-.55-3-1.14-4.51-1.8s-3.08-1.46-4.62-2.19-3.12-1.4-4.7-2.07c-.79-.33-1.58-.64-2.38-1a15.6,15.6,0,0,0-3.23-.87c-.27,0-.54-.06-.81-.07a1.67,1.67,0,0,0-.53-.06l-.31,0h-.18a8.13,8.13,0,0,0-1.85.4,1.92,1.92,0,0,0,.83,3.73c.06.91.13,1.82.22,2.72a35.78,35.78,0,0,0,1.06,6.7,31.11,31.11,0,0,0,1.63,4.3c.37.79.74,1.59,1.14,2.37l.91,1.75c.16.37.32.74.47,1.12a9.69,9.69,0,0,1,.36,1.26c.08.5.15,1,.19,1.51a18.09,18.09,0,0,1,0,1.85h0l-.06.85v-.46a47.26,47.26,0,0,1-.85,4.77,43.48,43.48,0,0,1-1.3,4.41c-.54,1.49-1.09,3-1.72,4.43s-1.36,3.07-2.05,4.6-1.42,3.14-2.1,4.72-1.31,3.27-2,4.9c-1.07,2.69-2.22,5.35-3.11,8.1q-.36,1.1-.69,2.21l-1.45,2.55q-.73,1.3-1.44,2.61c-.88,1.59-1.79,3.24-2.74,4.83-3.08,5.15-5.79,9.93-8.28,14.62s-5,9.73-7.45,14.81c-1.22,2.56-2.42,5.17-3.58,7.75-.76,1.71-1.52,3.45-2.24,5.14l-1,2.38c-.9,2.08-1.76,4.22-2.59,6.28l-.46,1.14q-.67,1.68-1.36,3.35c-.62,1.52-1.24,3-1.85,4.55-1,2.49-2.06,5.09-3.2,7.75-.49,1.16-1,2.32-1.46,3.48-.6,1.43-1.19,2.86-1.8,4.28s-1.15,2.7-1.72,4c-.48,1.14-1,2.29-1.46,3.43-.74,1.74-1.44,3.52-2.12,5.25l-.72,1.83-.44,1.07a1.4,1.4,0,0,0-.34.42h0a10.77,10.77,0,0,0-.71,1.67l-.58,1.56-.24.49a1,1,0,0,0-.1.41c-.32.84-.64,1.68-1,2.51-.94,2.3-1.93,4.58-3,6.81s-2.15,4.36-3.3,6.5-2.37,4.41-3.63,6.56c-2.5,4.26-5.18,8.41-7.64,12.69s-5.11,8.76-7.61,13.16c-1.22,2.16-2.38,4.36-3.53,6.55s-2.2,4.18-3.25,6.29c-2.32,4.57-4.32,9.16-6.4,13.76-1,2.28-2.06,4.55-3.09,6.82s-2,4.57-2.95,6.87c-1.86,4.51-3.82,9-5.95,13.35-2.2,4.54-4.47,9-6.69,13.57-2.12,4.34-4.15,8.72-6.34,13-1.17,2.29-2.42,4.54-3.73,6.76-1.2,2-2.48,4-3.7,6s-2.49,4.16-3.76,6.22-2.63,4.1-4,6.15c-1.48,2.29-2.92,4.6-4.44,6.87a52.63,52.63,0,0,1-5,6.39c-2,2-4,4-6.13,5.81A18.59,18.59,0,0,1,25,757.77c-1.14.48-2.33.85-3.44,1.41l-.16.13-.27.2c-1-.34-1.94-.68-2.9-1l-1.59-.57-1.75-.65q-.6-.24-1.2-.54A15.52,15.52,0,0,1,12.3,756c-.34-.25-.66-.51-1-.77a15,15,0,0,1-1.45-1.43,12.22,12.22,0,0,1-.8-1.13,20.66,20.66,0,0,1-1.3-2.36l-.17-.35-.11-.23A27.72,27.72,0,0,1,6.32,747c-.29-.81-.51-1.5-.7-2.15s-.33-1.23-.48-1.85c-.16-.91-.32-1.81-.46-2.72s-.24-2.07-.31-3-.15-2-.21-3a26.84,26.84,0,0,1,0-2.86c.18-1.94.34-3.42.54-4.79a36.62,36.62,0,0,1,.93-4.57c.76-2.75,1.6-5.69,2.56-8.53l.1-.27c.28-.77.57-1.57.89-2.33.45-1.07.94-2.15,1.46-3.21s1-1.86,1.41-2.7,1.06-1.75,1.57-2.5l.22-.29c.22-.29.44-.58.68-.86.49-.57,1-1.12,1.5-1.67.89-1,1.79-1.89,2.67-2.76s1.94-1.88,2.81-2.66c1-.94,2-1.82,2.8-2.68s1.36-1.45,2-2.16l.44-.48.14-.15c.69-.76,1.41-1.54,2.08-2.35,1.2-1.45,2.38-3,3.51-4.43l1.35-1.74c1.66-2.12,3.12-4.12,4.47-6.11l1.55-2.31c1-1.45,1.95-2.9,2.94-4.34,1.55-2.27,3.06-4.63,4.52-6.91,1.23-1.92,2.5-3.91,3.8-5.84l.89-1.26c.7-1,1.43-2,2.11-3,1-1.59,2.07-3.19,3.09-4.79.44-.68.88-1.36,1.33-2s1-1.58,1.55-2.38c.91-1.44,1.86-3,3-4.89,2-3.37,3.83-6.8,5.39-9.7.9-1.69,1.85-3.36,2.75-4.92s1.85-3.2,3-4.92l.69-1c.45-.63.91-1.25,1.35-1.89.91-1.31,1.78-2.62,2.58-3.85l1-1.56c1.28-1.94,2.6-4,3.85-6,1.44-2.33,2.81-4.76,4.13-7.11l.27-.48c.69-1.23,1.4-2.45,2.1-3.67s1.51-2.61,2.24-3.93c1.32-2.37,2.63-4.68,4-6.94l.64-1,4.21-6.77c1.34-2.18,2.92-4.78,4.46-7.5l.66-1.18c1.14-2,2.33-4.15,3.63-6.15l1.72-2.64c1-1.52,2-3,3-4.55l2.33-3.47,2.65-4q1.28-1.92,2.58-3.82c2.09-3.08,4.26-6.26,6.19-9.52.65-1.1,1.28-2.21,1.91-3.31.73-1.27,1.46-2.55,2.21-3.81,1.48-2.48,2.86-4.67,4.24-6.7,1.58-2.34,3-4.51,4.21-6.62,1.4-2.38,2.79-4.83,4.08-7.12q1.68-3,3.27-6l.86-1.6,1.93-3.59,1.92-3.57c1.22-2.28,2.46-4.63,3.66-7l.14-.28c.56-1.11,1.12-2.22,1.7-3.31s1.27-2.3,1.91-3.41l.24-.41c.47-.82,1-1.63,1.46-2.42l.56-.91c.78-1.25,1.52-2.56,2.14-3.68,1.65-2.94,2.87-5.23,3.95-7.41.78-1.57,1.54-3.14,2.3-4.71l1.45-3,.29-.58c1-2,2-4.11,2.84-6.23a43.73,43.73,0,0,0,1.43-4.5c.19-.68.36-1.35.52-2,.19-.87.36-1.79.52-2.88a24.12,24.12,0,0,0,.23-2.45v-.14c0-.6.05-1.21,0-1.81a34.38,34.38,0,0,0-.5-4.2c-.47-2.77-1.13-5.56-1.76-8.25-.28-1.21-.58-2.38-.87-3.54-.49-2-1-4-1.41-6-.33-1.79-.59-3.75-.81-6-.09-1-.13-2-.14-3,0-.83.06-1.67.11-2.49v-.27c.07-.89.15-1.77.24-2.65s.25-1.94.45-3.07c.16-.9.35-1.78.56-2.63s.51-1.79.87-2.83c.57-1.54,1-2.7,1.49-3.78.53-1.23,1.11-2.44,1.65-3.57,1.15-2.39,2.4-4.89,3.7-7.43,1.2-2.36,2.59-4.86,4.24-7.64,1-1.75,2.16-3.49,3.24-5.18l1.35-2.11c1.62-2.55,3.29-5,4.71-7.1,1.62-2.37,3-4.61,4.25-6.86,1.44-2.6,2.83-5.27,4.06-7.63l1.4-2.69,2.57-4.94c1.86-3.6,3.72-7.26,5.52-10.81l2.15-4.23c.75-1.47,1.48-3,2.22-4.43.51-1,1-2.06,1.54-3.09q1.91-3.79,3.84-7.58l.71-1.39c1-2,2.12-4.14,3-6.27.61-1.41,1.2-2.86,1.76-4.27.43-1.08.87-2.17,1.32-3.25s1-2.25,1.5-3.34l.19-.4c.68-1.47,1.32-2.78,2-4,1.19-2.33,2.62-4.58,4-6.76v-.07q2.09-3.3,4.21-6.59c.58-.91,1.17-1.81,1.76-2.71.82-1.25,1.64-2.51,2.44-3.78,1.25-2,2.36-3.81,3.38-5.57a16.42,16.42,0,0,1,0,2.11c-.1,1.19-.24,2.37-.41,3.55l-1,1.61c-1,1.61-1.93,3.23-2.91,4.83s-1.9,3.09-2.82,4.66c-1.94,3.3-3.76,6.66-5.54,10s-3.59,6.56-5.43,9.82-3.82,6.61-5.66,10-3.6,6.73-5.47,10.06-3.74,6.32-5.49,9.54S211,321,209.32,324.44c-.81,1.61-1.54,3.26-2.27,4.91q-1.24,2.77-2.42,5.56c-1.42,3.38-2.57,6.85-3.86,10.27-1.37,3.62-2.87,7.2-4.06,10.89a35.43,35.43,0,0,0-1.08,5,25.79,25.79,0,0,0-.27,3,11,11,0,0,0,.42,3.77,6.73,6.73,0,0,0,.64,1.37,3.35,3.35,0,0,0,.93,1,3.27,3.27,0,0,0,1.48.61,4.16,4.16,0,0,0,1.91-.21,7.68,7.68,0,0,0,2.84-2l1-1c1.33-1.53,2.56-3.11,3.74-4.75a115.15,115.15,0,0,0,6.19-9.88c1.9-3.29,3.67-6.65,5.44-10s3.56-6.8,5.31-10.21,3.66-7.13,5.4-10.74c1.66-3.45,3.22-6.94,4.79-10.43s3.2-7,4.81-10.51,3.08-6.78,4.66-10.15,3.36-7,5.08-10.42,3.4-6.86,5.14-10.27a83.86,83.86,0,0,1,5.37-8.81l-.29.43c1-1.51,2.07-3,3.16-4.51a26,26,0,0,1,3.39-3.86,13,13,0,0,1,1.6-1,8,8,0,0,1,1.22-.41h.46a5.12,5.12,0,0,1,0,.61,31.9,31.9,0,0,1-1,5.29c-.39,1.46-.85,2.89-1.34,4.32-1.35,3.62-3,7.12-4.7,10.58s-3.51,7-5.3,10.54c-.86,1.68-1.79,3.32-2.72,5l-2.76,4.87q-2.9,5.11-5.84,10.19c-2,3.36-4,6.66-5.93,10s-3.62,6.62-5.33,10L229.75,334c-1.66,3.25-3.21,6.55-4.91,9.77s-3.54,6.66-5.33,10c-.9,1.66-1.77,3.32-2.63,5s-1.69,3.28-2.42,5a28.18,28.18,0,0,0-1.69,5.38,19.61,19.61,0,0,0-.41,2.91,10.86,10.86,0,0,0,0,1.72,6.29,6.29,0,0,0,1.53,3.54,6.36,6.36,0,0,0,3,1.86,6.47,6.47,0,0,0,1.65.24,4.37,4.37,0,0,0,2.07-.57,9.07,9.07,0,0,0,1.46-1,10.49,10.49,0,0,0,1.4-1.29c.47-.51.87-1.08,1.29-1.63a48,48,0,0,0,3.19-5c1.94-3.35,3.73-6.78,5.51-10.21s3.55-6.78,5.34-10.16q5.4-10.2,10.67-20.47l5.16-10.24c1.73-3.38,3.44-6.76,5.19-10.12,3.58-6.84,7.17-13.68,10.46-20.66,3.22-6.81,6.6-13.53,10-20.25a57.55,57.55,0,0,1,2.88-5.23,13.61,13.61,0,0,1,1.35-1.56,7,7,0,0,1,.83-.58l.16.3a9.33,9.33,0,0,1,.47,1.49,12.24,12.24,0,0,1,.07,1.9,8.25,8.25,0,0,1-.2,1.21c-.14.54-.3,1.07-.47,1.6-2.55,7.14-6.15,13.84-9.77,20.48-1.8,3.3-3.59,6.6-5.44,9.87q-1.5,2.58-3,5.12c-1,1.69-2,3.29-3,4.93-1.94,3.1-3.68,6.33-5.38,9.56s-3.4,6.77-5.1,10.17-3.55,6.71-5.32,10.07-3.32,6.73-4.83,10.16-2.92,7-4.48,10.51c-.78,1.74-1.62,3.46-2.43,5.19s-1.46,3.31-2.16,5-1.42,3.53-2,5.34a28.68,28.68,0,0,0-1.23,5.52,16.27,16.27,0,0,0-.06,2.93,8,8,0,0,0,.85,3,7.64,7.64,0,0,0,.39.7,3.88,3.88,0,0,0,.46.57,5,5,0,0,0,.81.63l.28.11a2.16,2.16,0,0,0,.65.18,3.76,3.76,0,0,0,1,0,4.43,4.43,0,0,0,1.65-.55,11.63,11.63,0,0,0,3.19-2.77c.29-.33.53-.69.8-1s.54-.74.81-1.11c.58-.84,1.18-1.67,1.74-2.52,1-1.59,2.06-3.22,3-4.88,1.91-3.41,3.74-6.87,5.61-10.3s3.78-6.61,5.66-9.93,3.69-6.75,5.39-10.2,3.16-6.76,4.58-10.21,2.94-7.17,4.49-10.71,3.2-7.12,4.85-10.65,3.28-7,5-10.46,3.38-6.62,5.09-9.92,3.43-6.55,5.29-9.74c.45-.78.94-1.54,1.44-2.29a44,44,0,0,1,3.18-4.14,37.49,37.49,0,0,1,3.56-3.45,15.82,15.82,0,0,1,2.45-1.7c-.07.32-.15.64-.25,1-1,2.71-2,5.4-3.21,8A1.57,1.57,0,0,0,300,281c-.82,1.77-1.53,3.6-2.22,5.39l-.57,1.46c-1,2.44-2,4.84-3,7.07-1.22,2.68-2.38,5.08-3.56,7.33l-1.83,3.48L287.09,309c-1.2,2.3-2.42,4.56-3.79,7.06l-2,3.7L279.52,323c-1.39,2.56-2.72,5.13-3.73,7.09-1.19,2.31-2.47,4.81-3.73,7.38-.89,1.81-1.72,3.69-2.51,5.51l-.8,1.82c-1,2.28-2.1,4.67-3.55,7.75-.94,2-1.94,4-2.92,6l-1,1.94c-1.36,2.76-2.68,5.6-4,8.34-.89,1.92-1.77,3.84-2.69,5.74l-.09.19c-.5,1-1,2.12-1.49,3.2-.6,1.35-1.15,2.74-1.62,3.91-1.09,2.77-2.11,5.16-3.13,7.34s-2.17,4.46-3.26,6.62l-.4.79-.66,1.31Q242.3,401.09,240.63,404.37Z"/><path class="cls-1" d="M328.31,293.09c2.33,53,2.31,107,4.78,159,1.28,27.19-.33,55.77,6.35,75.51,2.82,8.34,10.44,18.25,17.49,23.85,22.4,17.8,101,22.75,121.61,0,10.67-11.8,10.16-38,11.12-57.23,1-20.31,2.39-45.67,2.39-67.57,0-46.75-4.69-90.09-3.19-133.54-4.08-7.4-2.61-16.22-3.17-23.85-.66-9-1.38-17.63-1.59-26.23-.87-36.13-10.92-59.52-28.61-78.69-7.3-7.91-20.78-15-23.85-22.26-4.07-9.66-3.69-25.74-4.77-38.16-1.2-14-2.53-29.36-.79-42.13.63-4.65,3.16-9.41,4-14.31,2.27-13.64-.33-28,1.58-40.54C423.94.42,409.91-1,395.89.58c-5.94.67-22.63,3.86-26.24,8.74-4.87,6.61-3.3,28.74,0,40.54C370.9,54.35,375.3,57.75,376,61c2.1,9.62-.8,28.26-.8,42.92,0,15.62,2.7,32.63,0,42.13-2.32,8.15-16.32,14.94-24.64,23.85-7.4,7.91-16.07,19.47-19.87,30.21-5.33,15-3.18,35.1-3.18,53.25C327.52,266.53,327.73,279.78,328.31,293.09Z"/><path class="cls-2" d="M403.82,8.53c-2.28,3-9.58,1-14.31,1.59C392.13,7.45,398.9,8.91,403.82,8.53Z"/><path class="cls-2" d="M418.13,19.66c-7.31,4.24-25.94,8.45-35,3.18C394.19,21.16,408.38,22.63,418.13,19.66Z"/><path class="cls-2" d="M376,26.82c12.41,6.41,37.31,3.25,46.9-3.18,1.35-.29,1.49.62,1.59,1.59C412.49,30.49,386.83,39.18,376,26.82Z"/><path class="cls-2" d="M422.91,32.38c1.77.34.32,3.92.79,5.56-8.91,7.24-32.28,6.74-46.1,4,.42-3.08-1.42-3.88-.79-7.15C390.49,43,409.33,37.18,422.91,32.38Z"/><path class="cls-2" d="M422.11,46.69c-5.78,6.41-21.86,3.75-33.39,3.18C399.3,48.26,413,49.76,422.11,46.69Z"/><path class="cls-2" d="M412.57,66.56c.92-.13,1.41.17,1.59.79-.24,8.25-8.59,12.6-11.93,15.1C402.74,74.23,410.16,72.91,412.57,66.56Z"/><path class="cls-2" d="M388.72,68.15c5,1.24,6.9.93,13.51.79-2.52,27.52-4.66,54.82,1.59,76.31-2.29,3.61-9.63,3.75-13.5,1.59C390,120.38,389.89,93.74,388.72,68.15Z"/><path class="cls-2" d="M406.21,68.15c-.71,1.41-1.91,2.32-2.39,4-1.08-.25-.65-2-.79-3.18C404.45,69.09,404.7,68,406.21,68.15Z"/><path class="cls-2" d="M412.57,76.9c2.73,8.58-6.36,12.2-10.34,16.69C402.81,85.15,409.58,82.92,412.57,76.9Z"/><path class="cls-2" d="M412.57,88c3.23,8.81-5.83,12.18-8.75,17.49C400.34,96.46,409.91,93.59,412.57,88Z"/><path class="cls-2" d="M411.77,100c5.73,7.7-5.48,11.93-8,16.7C400.81,108.58,410.37,106.24,411.77,100Z"/><path class="cls-2" d="M412.57,111.09c5.3,7.46-5.56,11-8,15.9C400.4,120.3,410.5,116.51,412.57,111.09Z"/><path class="cls-2" d="M413.37,123c3.29-.11.83,5.53,1.58,7.95-4,1.48-6.74,7.88-10.33,7.16C403.19,128.73,410.68,128.27,413.37,123Z"/><path class="cls-2" d="M415,133.33c1.65,2.07,1.68,5.73,1.59,9.54-2.57,1.94-5,4-10.33,3.18C406,138.66,412.63,138.22,415,133.33Z"/><path class="cls-2" d="M374.41,515.67c21.56,9.16,53.06,1.5,72.33-4v11.92c-27.84,10.6-71.11,8.33-95.38-4-8.93-55.28-12.73-131.39-12.73-199.5,0-23.81-3.23-47.22-2.39-68.36.32-8,3.32-18.17,4.76-27.82,1.52-10.16,2.27-20.72,5.56-27,4-7.71,13.62-14.86,19.88-21.46,7.14-7.52,12.69-16.08,20.67-20.67,6.4-.22,12.75,6.26,23,4.77,9.21,13.64,24,30,20.66,50.87-13.77,3.21-34.54,6.58-51.67,4.77-10-1.05-17.76-7-24.64-4.77-2.59,4.81,4.71,6.7,7.94,8,16.31,6.29,49.87,4,70,.79-1.24,19.79,2.77,38.56.8,56.44,4.71,32.32,8.36,66.24,11.13,101,3.27,41,3.85,83,2.38,127.18-31.22,0-60.82,1.7-84.26,9.54,21.14,1,42.39-4.77,66.77-3.18C414.94,515.4,394,518.23,374.41,515.67Z"/><path class="cls-2" d="M432.44,160.36c-.69,1.16-1.19,2.52-3.18,2.38a3.82,3.82,0,0,1-.79-2.38A3,3,0,0,1,432.44,160.36Z"/><path class="cls-2" d="M434.82,162c3.71.87,4.23,2.73,2.39,5.56C432.77,167.93,432.84,164.09,434.82,162Z"/><path class="cls-2" d="M426.08,165.09c3.17,1-.59,5.39-3.17,5.56C422.91,167.79,425.16,167.09,426.08,165.09Z"/><path class="cls-2" d="M440.39,167.51c1.8.87,4.47,3.25,2.39,5.57-2.46.59-1.53-2.19-4-1.59C438.11,169,440.05,169,440.39,167.51Z"/><path class="cls-2" d="M430.06,169.09a4,4,0,0,1,2.38,2.39c-.32,3.13-3.49,3.39-4,6.36C423.1,175.51,429.1,172.09,430.06,169.09Z"/><path class="cls-2" d="M435.63,173.87a7.18,7.18,0,0,1,3.18,3.18c-1.86,3.7-3.88,7.25-8,8.74.34-1.66-.54-2.1-.79-3.18C431.09,178.88,434.38,177.4,435.63,173.87Z"/><path class="cls-2" d="M446,174.66c1.69.8,3.86,3.21,2.39,4.77C446.81,178.48,444,176.72,446,174.66Z"/><path class="cls-2" d="M442,180.23c1,.28,1.25,1.4,2.39,1.59-2.63,5.06-5.8,9.56-10.33,12.72.57-2.43-1.37-2.34-.79-4.77C437.11,187.54,439.24,183.59,442,180.23Z"/><path class="cls-2" d="M450.72,181.82c2.16.49,3.12,2.18,3.18,4.77C452.93,184.9,450.91,184.28,450.72,181.82Z"/><path class="cls-2" d="M450.72,189.76c-4.56,4.71-8.42,10.13-14.31,13.52C438.05,196.41,445.7,183.21,450.72,189.76Z"/><path class="cls-2" d="M456.28,189.76c1.37,1,3.13,1.65,3.18,4-.71.36-1.42.7-1.59,1.59C456.69,194.09,456.63,191.84,456.28,189.76Z"/><path class="cls-2" d="M465,193c2.31,1.39,3,4.39,3.17,7.94-5.82,1.07-9.3,4.49-15.1,5.57C456.55,201.44,462.2,198.6,465,193Z"/><path class="cls-2" d="M456.28,196.09c-5.46,5.67-9.89,12.36-18.29,15.1C441,207.17,449.4,191.25,456.28,196.09Z"/><path class="cls-2" d="M469,211.23c1.36-.29,1.51.62,1.6,1.6-11.22,7.06-22.65,18.14-33.39,23C445.8,225.65,459.71,220.75,469,211.23Z"/><path class="cls-2" d="M471.39,219.18c-1.7,6.77-10.55,11.71-15.89,15.9-5.89,4.6-12.06,9.28-17.5,11.93.47-7.86,9.25-10.51,14.31-14.31,6.09-4.59,12-9.51,17.49-14.31C470.72,218.25,471.2,218.56,471.39,219.18Z"/><path class="cls-2" d="M471.39,227.92c1.64.68.84,5.53,0,6.36-1.36.29-1.5-.62-1.59-1.59-8.67,10.41-19.21,19-31,26.23-.06-1.26.38-3-.8-3.18C447.56,244.9,461.11,238.09,471.39,227.92Z"/><path class="cls-2" d="M472.18,237.46c1.45,1,1.59,7.37-1.59,6.36C470.21,240.78,470.81,238.75,472.18,237.46Z"/><path class="cls-2" d="M467.41,242.23c.86.2.54,1.59,1.58,1.59-5.88,12.92-19.48,18.14-28.61,27.82-1.27-1.66-1.65-4.18-1.59-7.15C450,258.71,458.89,250.66,467.41,242.23Z"/><path class="cls-2" d="M473,247.79c2.86,1,1.93,9.13,0,10.33C471.49,256.33,471.9,249.66,473,247.79Z"/><path class="cls-2" d="M469,252.56c1.82,1.36.3,6.07.8,8.75-9.21,8-18.64,15.8-27.82,23.85-2.7-1.27-.83-7.12-2.38-9.54C450.27,268.81,460.49,261.54,469,252.56Z"/><path class="cls-2" d="M474.56,261.31c1.54,1.33,1,7.33,0,8.75C472.56,268.41,472.29,262.8,474.56,261.31Z"/><path class="cls-2" d="M469,266.87c1.19,1.2,1.29,3.48,1.6,5.56-8.3,9.46-21.3,14.2-27.82,25.44,10.09-1.57,19.94-14.49,27.82-18.28v8.74c-9.77,6.4-19.91,16.65-27.82,22.26,1.6-9-3.22-14.65-1.6-20.67C443,283.15,466.46,273.8,469,266.87Z"/><path class="cls-2" d="M475.37,274c1.49,1.8,1.08,8.47,0,10.34C473.88,282.56,474.28,275.89,475.37,274Z"/><path class="cls-2" d="M476.15,287.54c.78,3.75,3,10.86,0,13.51C475.45,297.24,473.5,289.88,476.15,287.54Z"/><path class="cls-2" d="M469.8,293.09c3.49,1,.69,8.32,1.59,11.92-9.24,7.71-20.24,13.67-25.44,25.44,8.58-2.56,17.4-16,25.44-19.08v9.53c-8.68,7.49-18,14.32-24.64,23.85-2-9.08-2-20.27-3.18-30.21C451.8,309.9,461.26,300.09,469.8,293.09Z"/><path class="cls-2" d="M476.15,305.82c2.58.56,2.92,11.66-.79,11.13C475.71,313.32,474.56,308.2,476.15,305.82Z"/><path class="cls-2" d="M477,319.33c2.34.65,3,10.84-.79,10.34C476.48,326.28,475.39,321.48,477,319.33Z"/><path class="cls-2" d="M470.63,325.69c1.81,1.36.29,6.07.79,8.74-9.19,6.18-15.1,15.62-23.85,22.25C444.63,342.68,464.91,334.85,470.63,325.69Z"/><path class="cls-2" d="M477.74,333.64c2.49,10.54,2.07,28.1.8,39.74-.33-7.94-3.31-20.61,0-27C476.18,343.81,474.86,336.84,477.74,333.64Z"/><path class="cls-2" d="M449.13,368.61c2.41-13.49,14.4-17.39,20.67-27C474.81,351.36,453.15,363.57,449.13,368.61Z"/><path class="cls-2" d="M471.39,354.31c4.45,19.29-15.25,21.31-19.87,34.17C443.07,370,466.22,365.42,471.39,354.31Z"/><path class="cls-2" d="M471.39,371c5.82,16.71-17.8,17.68-18.28,33.38,8.09-3.83,13.21-14.86,19.87-17.49,3.42,7.34-5.15,11.13-8.74,15.1-4.18,4.6-7.4,10.59-11.93,11.93-1.1-6-.17-14.14-1.59-19.87C457.21,386,464.41,378.6,471.39,371Z"/><path class="cls-2" d="M473.77,400.41c-.55,15.61-14.32,18-18.28,30.21,6.84-1.38,12.52-10.78,17.48-16.69,7.64,19.7-16.72,20.81-19.08,35.77,8.9-3.82,13.77-15.89,20.66-19.08-.48,17-15.38,19.6-20.66,31.79-1.49-12.16-1.36-25.07-1.59-40.54C459.08,414.86,466.74,404.5,473.77,400.41Z"/><path class="cls-2" d="M473.77,444.92c5.27,18-15.34,23.85-20.66,36.57C448.87,463.09,467.29,456.58,473.77,444.92Z"/><path class="cls-2" d="M475.37,461.61C478.09,481,458.58,485.1,453.11,499,450.54,479.71,468.4,474,475.37,461.61Z"/><path class="cls-2" d="M476.15,478.3c4.17,15-9.35,19.26-14.3,27.82-3.48.56-4.48-1.35-8-.79C460.78,495.79,468.51,487.09,476.15,478.3Z"/><path class="cls-2" d="M477,493.41c3.26,7.91-.25,12.89-4.77,16.69-2.22-.7-3.93-1.91-6.36-2.39C468.89,502.31,473.63,498.56,477,493.41Z"/><path class="cls-2" d="M463.44,516.46c-.74,3.24-5.29,2.66-7.94,4C457.13,517.43,458.8,514.4,463.44,516.46Z"/><path class="cls-2" d="M438,228.72c-1.82-1.62-.29-6.61-.79-9.54,5.57-1.33,12.47-1.31,17.49-3.18C456.39,218.2,441.82,224.09,438,228.72Z"/><path class="cls-2" d="M357.72,532.35c.14-.9.8-.44.8,0,24.1,7.62,64.93,10,88.22,2.39,1.41,4-4.2,1.09-4,4s2.82,2.23,4.76,1.59c-10.45,5-25.54,3.73-39,3.18-17.43-.71-35.18-1-47.69-6.36A15.33,15.33,0,0,0,357.72,532.35Z"/></svg>